<?xml version="1.0" encoding="UTF-8"?>
<svg xmlns="http://www.w3.org/2000/svg" xmlns:xlink="http://www.w3.org/1999/xlink" width="252pt" height="116pt" viewBox="0 0 252 116" version="1.1">
<g id="surface1">
<path style=" stroke:none;fill-rule:nonzero;fill:rgb(17.999268%,18.798828%,57.299805%);fill-opacity:1;" d="M 14.480469 74.152344 L 9.46875 74.152344 L 9.46875 78.871094 C 10.039063 79.183594 10.636719 79.339844 11.265625 79.339844 C 12.238281 79.339844 13.308594 78.710938 14.480469 77.453125 Z M 14.480469 80.226563 C 13.613281 80.914063 12.691406 81.257813 11.707031 81.257813 C 11.039063 81.257813 10.214844 80.816406 9.230469 79.929688 C 9.113281 80.542969 8.875 81.027344 8.523438 81.394531 C 8.171875 81.757813 7.699219 81.996094 7.109375 82.113281 L 11.175781 86.238281 L 10.113281 87.125 L 6.667969 83.289063 C 5.957031 82.503906 5.363281 81.734375 4.878906 80.976563 C 4.402344 80.21875 4.160156 79.515625 4.160156 78.871094 C 4.160156 78.574219 4.277344 78.328125 4.511719 78.132813 C 4.75 77.9375 5.027344 77.835938 5.335938 77.835938 C 5.523438 77.835938 5.871094 77.988281 6.371094 78.277344 C 6.667969 78.277344 6.8125 78.082031 6.8125 77.691406 L 6.8125 74.152344 L 3.480469 74.152344 L 2.152344 71.792969 L 19.195313 71.792969 L 20.523438 74.152344 L 17.132813 74.152344 L 17.132813 86.535156 L 14.480469 84.765625 Z M 23.832031 94.496094 L 22.648438 94.941406 C 21.6875 93.257813 20.65625 91.957031 19.554688 91.023438 C 18.453125 90.097656 17.417969 89.628906 16.457031 89.628906 C 15.914063 89.628906 15.460938 89.800781 15.09375 90.140625 C 14.726563 90.480469 14.539063 90.898438 14.539063 91.402344 C 14.539063 91.714844 14.65625 91.992188 14.894531 92.226563 C 15.128906 92.464844 15.40625 92.578125 15.71875 92.578125 C 16.683594 92.578125 17.417969 92.289063 17.933594 91.699219 L 19.109375 93.171875 C 18.304688 93.957031 17.519531 94.351563 16.75 94.351563 C 15.738281 94.351563 14.898438 93.972656 14.222656 93.222656 C 13.550781 92.46875 13.214844 91.566406 13.214844 90.515625 C 13.214844 89.761719 13.480469 89.101563 14.003906 88.546875 C 14.527344 87.996094 15.148438 87.714844 15.871094 87.714844 C 16.871094 87.714844 18.070313 88.308594 19.457031 89.484375 C 20.847656 90.660156 22.304688 92.332031 23.832031 94.496094 Z M 32.320313 74.152344 L 29.667969 74.152344 L 28.191406 71.792969 L 30.992188 71.792969 Z M 31.875 80.195313 C 30.992188 80.6875 30.105469 80.933594 29.222656 80.933594 C 28.269531 80.933594 27.1875 80.441406 25.980469 79.460938 C 25.082031 79.773438 24.367188 80.207031 23.835938 80.75 C 23.296875 81.296875 23.03125 81.847656 23.03125 82.410156 C 23.03125 83.007813 23.207031 83.527344 23.554688 83.964844 C 23.902344 84.402344 24.320313 84.617188 24.800781 84.617188 C 25.515625 84.617188 25.960938 84.472656 26.125 84.175781 C 25.929688 83.960938 25.832031 83.714844 25.832031 83.441406 C 25.832031 83.058594 25.992188 82.742188 26.3125 82.492188 C 26.628906 82.238281 27.011719 82.113281 27.453125 82.113281 C 27.992188 82.113281 28.449219 82.285156 28.816406 82.621094 C 29.183594 82.964844 29.371094 83.382813 29.371094 83.882813 C 29.371094 84.648438 29.027344 85.238281 28.339844 85.652344 L 30.546875 88.746094 L 29.222656 89.339844 L 27.691406 86.09375 C 27.371094 86.230469 26.90625 86.300781 26.277344 86.300781 C 25.054688 86.300781 23.816406 85.761719 22.558594 84.679688 C 21.300781 83.597656 20.671875 82.546875 20.671875 81.523438 C 20.671875 80.84375 20.957031 80.171875 21.519531 79.496094 C 22.085938 78.820313 22.835938 78.269531 23.769531 77.835938 C 23.03125 77.328125 22.4375 76.769531 21.992188 76.15625 C 21.546875 75.546875 21.320313 74.976563 21.320313 74.449219 C 21.320313 73.640625 21.65625 72.976563 22.324219 72.441406 C 22.988281 71.914063 23.769531 71.644531 24.652344 71.644531 C 25.566406 71.644531 26.480469 72.121094 27.402344 73.070313 C 28.320313 74.015625 28.78125 74.96875 28.78125 75.921875 C 28.78125 76.472656 28.589844 77.011719 28.203125 77.535156 C 27.820313 78.0625 27.328125 78.503906 26.71875 78.871094 C 27.15625 79.164063 27.699219 79.308594 28.339844 79.308594 C 29.597656 79.308594 30.773438 78.773438 31.875 77.691406 Z M 24.359375 77.542969 C 25.101563 77.203125 25.6875 76.804688 26.097656 76.367188 C 26.511719 75.921875 26.71875 75.480469 26.71875 75.039063 C 26.71875 74.605469 26.578125 74.253906 26.304688 73.976563 C 26.03125 73.699219 25.675781 73.5625 25.242188 73.5625 C 24.730469 73.5625 24.28125 73.714844 23.902344 74.023438 C 23.519531 74.324219 23.328125 74.710938 23.328125 75.183594 C 23.328125 76.207031 23.667969 76.988281 24.359375 77.542969 Z M 40.753906 74.152344 L 36.328125 74.152344 L 36.328125 79.164063 L 40.753906 79.164063 Z M 40.753906 81.523438 L 36.328125 81.523438 L 36.328125 82.703125 C 36.328125 83 36.28125 83.21875 36.183594 83.367188 C 36.082031 83.511719 35.9375 83.585938 35.742188 83.585938 C 35.269531 83.585938 34.539063 83.089844 33.542969 82.09375 C 32.550781 81.089844 32.050781 80.363281 32.050781 79.902344 C 32.050781 79.71875 32.128906 79.546875 32.269531 79.394531 C 32.410156 79.238281 32.585938 79.164063 32.792969 79.164063 L 33.675781 79.164063 L 33.675781 74.152344 L 31.289063 74.152344 L 29.960938 71.792969 L 45.46875 71.792969 L 46.796875 74.152344 L 43.40625 74.152344 L 43.40625 86.535156 L 40.753906 84.765625 Z M 52.765625 90.632813 L 52.765625 90.132813 C 53.648438 89.75 54.292969 89.253906 54.691406 88.648438 C 55.089844 88.046875 55.285156 87.433594 55.285156 86.800781 C 55.285156 86.671875 55.265625 86.578125 55.214844 86.507813 C 55.15625 86.433594 55.097656 86.40625 55.054688 86.40625 C 55.003906 86.40625 54.933594 86.429688 54.847656 86.492188 C 54.621094 86.621094 54.34375 86.683594 54.015625 86.683594 C 53.570313 86.683594 53.175781 86.511719 52.847656 86.160156 C 52.519531 85.8125 52.351563 85.398438 52.351563 84.929688 C 52.351563 84.425781 52.542969 83.984375 52.921875 83.601563 C 53.296875 83.21875 53.761719 83.027344 54.300781 83.027344 C 54.957031 83.027344 55.515625 83.28125 55.980469 83.789063 C 56.441406 84.292969 56.675781 84.984375 56.675781 85.871094 C 56.675781 86.964844 56.347656 87.929688 55.691406 88.777344 C 55.039063 89.621094 54.0625 90.238281 52.765625 90.632813 Z M 76.484375 78.871094 C 76.308594 78.773438 76.011719 78.722656 75.597656 78.722656 C 75.039063 78.722656 74.472656 78.996094 73.890625 79.546875 C 73.308594 80.101563 72.800781 80.855469 72.359375 81.816406 L 70.144531 80.347656 C 70.164063 80.246094 70.359375 79.804688 70.734375 79.019531 C 70.410156 78.523438 69.871094 78.277344 69.113281 78.277344 C 68.484375 78.277344 67.945313 78.496094 67.492188 78.921875 C 67.039063 79.351563 66.8125 79.875 66.8125 80.492188 C 66.8125 82.574219 67.925781 84.394531 70.144531 85.949219 L 69.410156 86.832031 C 66.070313 84.492188 64.398438 82.03125 64.398438 79.460938 C 64.398438 78.429688 64.742188 77.554688 65.417969 76.84375 C 66.105469 76.128906 66.945313 75.773438 67.933594 75.773438 C 68.957031 75.773438 70.089844 76.511719 71.328125 77.988281 C 72.171875 76.804688 73.101563 76.214844 74.125 76.214844 C 75.011719 76.214844 75.796875 76.5625 76.484375 77.246094 L 76.484375 74.152344 L 63.277344 74.152344 L 61.949219 71.792969 L 81.207031 71.792969 L 82.527344 74.152344 L 79.136719 74.152344 L 79.136719 86.535156 L 76.484375 85.207031 Z M 91.519531 74.152344 L 86.300781 74.152344 C 85.929688 74.152344 85.648438 74.253906 85.460938 74.449219 C 85.277344 74.644531 85.179688 74.9375 85.179688 75.328125 C 85.179688 75.851563 85.457031 76.347656 86.011719 76.804688 C 86.796875 76.609375 87.453125 76.511719 87.984375 76.511719 L 88.867188 78.722656 C 87.855469 78.722656 86.988281 78.914063 86.265625 79.289063 C 85.542969 79.667969 85.179688 80.121094 85.179688 80.640625 C 85.179688 80.945313 85.355469 81.191406 85.703125 81.382813 C 86.054688 81.574219 86.421875 81.671875 86.804688 81.671875 C 88.375 81.671875 89.949219 80.886719 91.519531 79.308594 Z M 91.519531 82.703125 C 90.332031 83.6875 89.15625 84.175781 87.984375 84.175781 C 86.941406 84.175781 85.871094 83.628906 84.769531 82.527344 C 83.671875 81.421875 83.117188 80.351563 83.117188 79.308594 C 83.117188 78.460938 83.660156 77.769531 84.742188 77.246094 C 84.003906 76.964844 83.449219 76.644531 83.082031 76.28125 C 82.714844 75.921875 82.527344 75.527344 82.527344 75.097656 C 82.527344 74.722656 82.628906 74.410156 82.824219 74.152344 L 81.496094 74.152344 L 80.167969 71.792969 L 96.242188 71.792969 L 97.5625 74.152344 L 94.175781 74.152344 L 94.175781 86.535156 L 91.519531 84.914063 Z M 84.003906 89.78125 L 84.742188 89.1875 C 85.578125 90.378906 86.597656 91.316406 87.8125 92 C 89.03125 92.679688 90.261719 93.023438 91.519531 93.023438 C 92.394531 93.023438 93.15625 92.753906 93.800781 92.226563 C 94.445313 91.695313 94.765625 91.03125 94.765625 90.222656 C 94.765625 90.007813 94.671875 89.828125 94.480469 89.691406 C 94.289063 89.554688 94.035156 89.484375 93.734375 89.484375 C 93.09375 89.484375 92.457031 89.925781 91.816406 90.8125 L 90.046875 89.1875 C 90.929688 88.308594 91.816406 87.863281 92.703125 87.863281 C 93.519531 87.863281 94.332031 88.273438 95.152344 89.09375 C 95.972656 89.917969 96.386719 90.734375 96.386719 91.546875 C 96.386719 92.484375 95.980469 93.277344 95.167969 93.941406 C 94.359375 94.605469 93.386719 94.941406 92.261719 94.941406 C 90.816406 94.941406 89.355469 94.476563 87.886719 93.554688 C 86.417969 92.628906 85.125 91.371094 84.003906 89.78125 Z M 115.578125 74.152344 L 112.925781 74.152344 L 112.925781 80.050781 C 112.925781 80.660156 112.570313 81.175781 111.855469 81.609375 C 111.144531 82.042969 110.269531 82.257813 109.238281 82.257813 L 108.359375 80.492188 C 108.554688 80.566406 108.75 80.609375 108.945313 80.609375 C 109.257813 80.609375 109.558594 80.507813 109.84375 80.300781 C 110.128906 80.09375 110.269531 79.8125 110.269531 79.460938 L 110.269531 74.152344 L 106.730469 74.152344 L 106.730469 80.933594 C 106.730469 81.453125 106.914063 81.988281 107.28125 82.527344 C 107.644531 83.070313 108.050781 83.472656 108.503906 83.734375 L 112.925781 86.390625 C 113.414063 86.683594 113.882813 87.066406 114.324219 87.539063 C 114.769531 88.011719 114.988281 88.414063 114.988281 88.746094 C 114.988281 89.023438 114.855469 89.339844 114.59375 89.691406 C 114.324219 90.042969 113.96875 90.371094 113.515625 90.664063 L 111.15625 88.894531 C 111.742188 88.539063 112.039063 88.148438 112.039063 87.714844 C 112.039063 87.441406 111.8125 87.109375 111.371094 86.726563 C 110.925781 86.34375 110.457031 86.03125 109.976563 85.796875 L 106.144531 83.882813 C 105.628906 83.628906 105.160156 83.238281 104.730469 82.726563 C 104.296875 82.207031 104.078125 81.710938 104.078125 81.226563 L 104.078125 74.152344 L 102.371094 74.152344 L 101.039063 71.792969 L 114.25 71.792969 Z M 124.335938 79.460938 C 122.632813 78.277344 121.210938 77.691406 120.0625 77.691406 C 119.238281 77.691406 118.535156 77.925781 117.96875 78.390625 C 117.394531 78.855469 117.113281 79.410156 117.113281 80.050781 C 117.113281 80.578125 117.375 81.03125 117.902344 81.402344 C 118.425781 81.78125 119.050781 81.96875 119.765625 81.96875 C 121.144531 81.96875 122.664063 81.132813 124.335938 79.460938 Z M 124.1875 82.410156 C 123.550781 82.949219 122.933594 83.355469 122.347656 83.621094 C 121.757813 83.894531 121.1875 84.03125 120.652344 84.03125 C 119.527344 84.03125 118.390625 83.480469 117.230469 82.378906 C 116.070313 81.277344 115.492188 80.207031 115.492188 79.164063 C 115.492188 78.152344 115.875 77.285156 116.644531 76.5625 C 117.421875 75.839844 118.359375 75.480469 119.472656 75.480469 C 121.132813 75.480469 122.703125 76.359375 124.1875 78.132813 L 124.1875 74.152344 L 114.546875 74.152344 L 113.21875 71.792969 L 128.90625 71.792969 L 130.230469 74.152344 L 126.839844 74.152344 L 126.839844 86.535156 L 124.1875 84.765625 Z M 127.3125 68.988281 L 125.457031 70.847656 L 123.625 68.988281 L 125.457031 67.164063 Z M 150.339844 74.152344 L 145.914063 74.152344 L 145.914063 79.164063 L 150.339844 79.164063 Z M 150.339844 81.523438 L 145.914063 81.523438 L 145.914063 82.703125 C 145.914063 83 145.867188 83.21875 145.769531 83.367188 C 145.671875 83.511719 145.523438 83.585938 145.328125 83.585938 C 144.855469 83.585938 144.125 83.089844 143.128906 82.09375 C 142.136719 81.089844 141.640625 80.363281 141.640625 79.902344 C 141.640625 79.71875 141.714844 79.546875 141.855469 79.394531 C 141.996094 79.238281 142.171875 79.164063 142.378906 79.164063 L 143.265625 79.164063 L 143.265625 74.152344 L 140.875 74.152344 L 139.546875 71.792969 L 155.054688 71.792969 L 156.382813 74.152344 L 152.992188 74.152344 L 152.992188 86.535156 L 150.339844 84.765625 Z M 159.421875 75.625 C 160 75.625 160.488281 75.46875 160.886719 75.164063 C 161.285156 74.851563 161.484375 74.46875 161.484375 74.007813 C 161.484375 73.625 161.34375 73.304688 161.0625 73.054688 C 160.785156 72.804688 160.433594 72.675781 160.011719 72.675781 C 159.578125 72.675781 159.222656 72.855469 158.933594 73.203125 C 158.648438 73.546875 158.507813 73.941406 158.507813 74.375 C 158.507813 74.765625 158.605469 75.074219 158.804688 75.292969 C 159 75.515625 159.207031 75.625 159.421875 75.625 Z M 165.757813 82.410156 C 164.039063 83.585938 162.664063 84.175781 161.632813 84.175781 C 160.578125 84.175781 159.507813 83.714844 158.410156 82.78125 C 157.3125 81.855469 156.765625 80.945313 156.765625 80.050781 C 156.765625 79.472656 156.988281 78.925781 157.425781 78.417969 C 157.863281 77.917969 158.425781 77.574219 159.125 77.398438 C 158.300781 77.089844 157.625 76.648438 157.105469 76.058594 C 156.585938 75.476563 156.324219 74.84375 156.324219 74.152344 C 156.324219 73.398438 156.617188 72.738281 157.203125 72.183594 C 157.785156 71.632813 158.476563 71.347656 159.269531 71.347656 C 160.128906 71.347656 160.855469 71.609375 161.460938 72.125 C 162.0625 72.644531 162.371094 73.265625 162.371094 74.007813 C 162.371094 74.699219 162.109375 75.292969 161.597656 75.78125 C 161.078125 76.265625 160.453125 76.511719 159.714844 76.511719 C 159.804688 76.679688 160.078125 76.820313 160.535156 76.929688 C 160.992188 77.046875 161.503906 77.101563 162.074219 77.101563 L 163.253906 79.460938 L 161.632813 79.460938 C 160.835938 79.460938 160.148438 79.617188 159.558594 79.9375 C 158.972656 80.257813 158.683594 80.640625 158.683594 81.082031 C 158.683594 81.339844 158.859375 81.574219 159.214844 81.789063 C 159.566406 82.007813 159.980469 82.113281 160.453125 82.113281 C 161.238281 82.113281 162.09375 81.871094 163.015625 81.394531 C 163.941406 80.910156 164.855469 80.214844 165.757813 79.308594 Z M 166.113281 74.152344 L 164.578125 74.152344 L 163.105469 71.792969 L 164.785156 71.792969 Z M 174.488281 74.152344 L 169.917969 74.152344 C 170.84375 75.203125 171.304688 76.164063 171.304688 77.039063 C 171.304688 77.640625 170.976563 78.183594 170.316406 78.664063 C 169.65625 79.144531 168.808594 79.421875 167.765625 79.492188 C 168.101563 80.058594 168.496094 80.488281 168.949219 80.769531 C 169.394531 81.054688 169.910156 81.195313 170.476563 81.195313 C 171.953125 81.195313 173.289063 80.503906 174.488281 79.105469 Z M 174.488281 82.289063 C 173.527344 83.195313 172.464844 83.648438 171.304688 83.648438 C 170.113281 83.648438 168.988281 83.027344 167.925781 81.789063 C 166.863281 80.554688 166.105469 79.070313 165.640625 77.335938 C 166.804688 77.335938 167.675781 77.171875 168.253906 76.835938 C 168.832031 76.503906 169.125 76 169.125 75.328125 C 169.125 74.898438 168.949219 74.503906 168.589844 74.152344 L 165.082031 74.152344 L 163.753906 71.792969 L 179.355469 71.792969 L 180.683594 74.152344 L 177.144531 74.152344 L 177.144531 86.535156 L 174.488281 84.914063 Z M 188.964844 74.152344 L 184.542969 74.152344 L 184.542969 79.164063 L 188.964844 79.164063 Z M 188.964844 81.523438 L 184.542969 81.523438 L 184.542969 82.703125 C 184.542969 83 184.492188 83.21875 184.394531 83.367188 C 184.296875 83.511719 184.148438 83.585938 183.953125 83.585938 C 183.480469 83.585938 182.75 83.089844 181.753906 82.09375 C 180.761719 81.089844 180.265625 80.363281 180.265625 79.902344 C 180.265625 79.71875 180.339844 79.546875 180.480469 79.394531 C 180.621094 79.238281 180.796875 79.164063 181.003906 79.164063 L 181.890625 79.164063 L 181.890625 74.152344 L 179.5 74.152344 L 178.171875 71.792969 L 193.679688 71.792969 L 195.007813 74.152344 L 191.617188 74.152344 L 191.617188 86.535156 L 188.964844 84.765625 Z M 216.53125 82.554688 C 216.53125 83.472656 216.203125 84.234375 215.550781 84.859375 C 214.894531 85.484375 214.09375 85.796875 213.140625 85.796875 C 211.902344 85.796875 210.648438 85.324219 209.375 84.367188 C 208.101563 83.417969 207 82.121094 206.0625 80.492188 L 206.804688 79.902344 C 207.457031 81.03125 208.191406 81.882813 209.007813 82.445313 C 209.816406 83.007813 210.703125 83.289063 211.664063 83.289063 C 212.304688 83.289063 212.855469 83.09375 213.324219 82.695313 C 213.792969 82.300781 214.023438 81.8125 214.023438 81.226563 C 214.023438 80.914063 213.929688 80.625 213.726563 80.351563 C 213.53125 80.078125 213.238281 79.832031 212.847656 79.605469 C 212.011719 79.902344 211.175781 80.050781 210.339844 80.050781 L 209.011719 77.835938 C 209.257813 77.855469 209.496094 77.867188 209.722656 77.867188 C 210.621094 77.867188 211.417969 77.699219 212.105469 77.359375 C 212.796875 77.019531 213.140625 76.589844 213.140625 76.070313 C 213.140625 75.65625 213.042969 75.289063 212.847656 74.972656 C 212.652344 74.652344 212.355469 74.378906 211.960938 74.152344 L 205.652344 74.152344 L 204.324219 71.792969 L 217.445313 71.792969 L 218.769531 74.152344 L 213.726563 74.152344 C 214.320313 74.644531 214.765625 75.132813 215.054688 75.625 C 215.351563 76.121094 215.5 76.609375 215.5 77.101563 C 215.5 77.820313 215.007813 78.453125 214.023438 79.019531 C 214.859375 79.507813 215.488281 80.050781 215.90625 80.640625 C 216.324219 81.226563 216.53125 81.867188 216.53125 82.554688 Z M 235.371094 74.152344 L 231.980469 74.152344 L 231.980469 86.535156 L 229.328125 84.945313 L 229.328125 84.472656 C 228.164063 85.652344 226.789063 86.238281 225.195313 86.238281 C 223.988281 86.238281 222.824219 85.828125 221.714844 85 C 220.597656 84.175781 220.039063 83.214844 220.039063 82.113281 C 220.039063 81.453125 220.285156 80.964844 220.777344 80.640625 C 220.148438 80.109375 219.644531 79.546875 219.273438 78.957031 C 218.902344 78.367188 218.710938 77.847656 218.710938 77.398438 C 218.710938 76.804688 218.9375 76.316406 219.390625 75.921875 C 219.839844 75.527344 220.398438 75.328125 221.070313 75.328125 L 224.019531 75.328125 L 224.019531 74.152344 L 217.738281 74.152344 L 216.410156 71.792969 L 234.042969 71.792969 Z M 229.328125 81.523438 L 229.328125 74.152344 L 226.671875 74.152344 L 226.671875 77.542969 L 222.101563 77.542969 C 221.613281 77.542969 221.242188 77.628906 220.992188 77.800781 C 220.753906 77.972656 220.628906 78.234375 220.628906 78.574219 C 220.628906 79.144531 220.871094 79.636719 221.367188 80.050781 C 222.0625 79.554688 223.339844 79.308594 225.195313 79.308594 L 226.230469 81.523438 C 225.769531 81.445313 225.328125 81.402344 224.902344 81.402344 C 223.914063 81.402344 223.121094 81.574219 222.539063 81.917969 C 221.949219 82.253906 221.65625 82.660156 221.65625 83.144531 C 221.65625 83.480469 221.945313 83.757813 222.515625 83.984375 C 223.085938 84.210938 223.730469 84.320313 224.460938 84.320313 C 226.417969 84.320313 228.039063 83.390625 229.328125 81.523438 Z M 243.804688 74.152344 L 239.382813 74.152344 L 239.382813 79.164063 L 243.804688 79.164063 Z M 243.804688 81.523438 L 239.382813 81.523438 L 239.382813 82.703125 C 239.382813 83 239.328125 83.21875 239.234375 83.367188 C 239.132813 83.511719 238.988281 83.585938 238.792969 83.585938 C 238.320313 83.585938 237.589844 83.089844 236.59375 82.09375 C 235.601563 81.089844 235.105469 80.363281 235.105469 79.902344 C 235.105469 79.71875 235.179688 79.546875 235.320313 79.394531 C 235.460938 79.238281 235.636719 79.164063 235.84375 79.164063 L 236.730469 79.164063 L 236.730469 74.152344 L 234.339844 74.152344 L 233.011719 71.792969 L 248.519531 71.792969 L 249.847656 74.152344 L 246.457031 74.152344 L 246.457031 86.535156 L 243.804688 84.765625 L 243.804688 81.523438 "/>
<path style=" stroke:none;fill-rule:evenodd;fill:rgb(17.999268%,18.798828%,57.299805%);fill-opacity:1;" d="M 0.820313 63.484375 L 250.949219 63.484375 C 250.566406 60.929688 253.046875 60.921875 244.945313 61.082031 C 207.589844 61.816406 163.128906 61.105469 125.550781 61.105469 L 14.128906 61.105469 C -2.078125 61.105469 1.078125 60.128906 0.820313 63.484375 "/>
<path style=" stroke:none;fill-rule:evenodd;fill:rgb(17.999268%,18.798828%,57.299805%);fill-opacity:1;" d="M 14.804688 1.578125 C 3.703125 0.976563 0.660156 7.832031 0.699219 18.425781 C 0.738281 28.734375 0.664063 39.046875 0.722656 49.355469 L 14.792969 49.445313 L 14.804688 1.578125 "/>
<path style=" stroke:none;fill-rule:evenodd;fill:rgb(17.999268%,18.798828%,57.299805%);fill-opacity:1;" d="M 43.230469 49.464844 L 57.304688 49.464844 L 57.347656 48.683594 C 57.347656 38.601563 57.328125 28.515625 57.371094 18.4375 C 57.417969 7.675781 54.054688 1.726563 43.226563 1.421875 L 43.230469 49.464844 "/>
<path style=" stroke:none;fill-rule:evenodd;fill:rgb(17.999268%,18.798828%,57.299805%);fill-opacity:1;" d="M 35.695313 43.171875 L 35.765625 1.476563 L 21.914063 1.472656 L 21.914063 43.171875 L 35.695313 43.171875 "/>
<path style=" stroke:none;fill-rule:evenodd;fill:rgb(17.999268%,18.798828%,57.299805%);fill-opacity:1;" d="M 144.144531 1.421875 C 132.820313 1.730469 129.949219 8.074219 130.003906 19.234375 C 130.046875 29.308594 129.949219 39.390625 130.027344 49.464844 L 144.15625 49.464844 L 144.144531 1.421875 "/>
<path style=" stroke:none;fill-rule:evenodd;fill:rgb(17.999268%,18.798828%,57.299805%);fill-opacity:1;" d="M 172.558594 49.417969 L 186.644531 49.421875 C 186.683594 39 186.625 28.714844 186.664063 18.425781 C 186.703125 7.628906 183.667969 1.414063 172.554688 1.480469 L 172.558594 49.417969 "/>
<path style=" stroke:none;fill-rule:evenodd;fill:rgb(17.999268%,18.798828%,57.299805%);fill-opacity:1;" d="M 150.816406 43.171875 L 164.457031 43.171875 L 164.449219 1.476563 L 150.734375 1.476563 L 150.816406 43.171875 "/>
<path style=" stroke:none;fill-rule:evenodd;fill:rgb(17.999268%,18.798828%,57.299805%);fill-opacity:1;" d="M 251.300781 13.53125 L 251.300781 1.117188 C 241.21875 0.0664063 226.828125 0.886719 216.28125 0.882813 C 203.484375 0.882813 194.261719 -0.0898438 193.824219 13.796875 L 251.300781 13.53125 "/>
<path style=" stroke:none;fill-rule:evenodd;fill:rgb(17.999268%,18.798828%,57.299805%);fill-opacity:1;" d="M 251.300781 49.953125 L 251.300781 37.546875 L 193.824219 37.234375 C 194.308594 51.089844 203.699219 50.113281 216.28125 50.113281 C 227.394531 50.113281 240.425781 50.734375 251.300781 49.953125 "/>
<path style=" stroke:none;fill-rule:evenodd;fill:rgb(17.999268%,18.798828%,57.299805%);fill-opacity:1;" d="M 193.902344 31.953125 L 236.429688 31.957031 L 236.453125 19.074219 L 193.894531 19.078125 L 193.902344 31.953125 "/>
<path style=" stroke:none;fill-rule:evenodd;fill:rgb(17.999268%,18.798828%,57.299805%);fill-opacity:1;" d="M 64.175781 13.785156 L 121.429688 13.625 L 121.429688 1.035156 C 110.628906 0.257813 97.59375 0.886719 86.554688 0.882813 C 73.914063 0.882813 64.628906 -0.03125 64.175781 13.785156 "/>
<path style=" stroke:none;fill-rule:evenodd;fill:rgb(17.999268%,18.798828%,57.299805%);fill-opacity:1;" d="M 64.40625 50.066406 C 76.035156 50.066406 87.660156 50.0625 99.289063 50.066406 C 112.078125 50.066406 120.984375 51.34375 121.433594 37.390625 L 64.175781 37.191406 L 64.40625 50.066406 "/>
<path style=" stroke:none;fill-rule:evenodd;fill:rgb(17.999268%,18.798828%,57.299805%);fill-opacity:1;" d="M 64.273438 19.09375 L 65.382813 19.023438 L 94.820313 18.917969 C 96.289063 18.9375 97.734375 18.945313 99.148438 18.945313 C 110.992188 18.945313 119.890625 18.144531 121.335938 29.414063 L 121.292969 31.699219 C 109.667969 31.699219 98.039063 31.695313 86.414063 31.699219 C 73.644531 31.699219 64.75 32.96875 64.273438 19.09375 "/>
<path style=" stroke:none;fill-rule:nonzero;fill:rgb(17.999268%,18.798828%,57.299805%);fill-opacity:1;" d="M 2.785156 112.832031 L 2.785156 101.269531 L 5.480469 101.269531 L 7.070313 109.15625 L 8.644531 101.269531 L 11.34375 101.269531 L 11.34375 112.832031 L 9.683594 112.832031 L 9.675781 103.730469 L 7.925781 112.832031 L 6.195313 112.832031 L 4.453125 103.730469 L 4.445313 112.832031 Z M 13.082031 112.832031 L 13.082031 101.269531 L 14.882813 101.269531 L 14.882813 112.832031 Z M 22.273438 108.570313 L 24.011719 109.265625 C 23.746094 110.539063 23.300781 111.484375 22.679688 112.101563 C 22.058594 112.71875 21.273438 113.027344 20.320313 113.027344 C 19.140625 113.027344 18.167969 112.503906 17.40625 111.453125 C 16.648438 110.402344 16.269531 108.96875 16.269531 107.148438 C 16.269531 105.222656 16.652344 103.726563 17.414063 102.660156 C 18.175781 101.59375 19.183594 101.0625 20.425781 101.0625 C 21.515625 101.0625 22.398438 101.480469 23.078125 102.316406 C 23.480469 102.8125 23.785156 103.523438 23.984375 104.453125 L 22.210938 105 C 22.105469 104.402344 21.886719 103.929688 21.554688 103.582031 C 21.21875 103.234375 20.8125 103.0625 20.335938 103.0625 C 19.679688 103.0625 19.144531 103.371094 18.734375 103.984375 C 18.320313 104.601563 18.117188 105.59375 18.117188 106.976563 C 18.117188 108.433594 18.320313 109.476563 18.722656 110.09375 C 19.128906 110.714844 19.652344 111.023438 20.300781 111.023438 C 20.777344 111.023438 21.191406 110.828125 21.535156 110.433594 C 21.878906 110.039063 22.125 109.417969 22.273438 108.570313 Z M 25.550781 112.832031 L 25.550781 101.269531 L 29.328125 101.269531 C 30.28125 101.269531 30.96875 101.375 31.398438 101.582031 C 31.832031 101.789063 32.175781 102.160156 32.433594 102.6875 C 32.691406 103.222656 32.824219 103.828125 32.824219 104.511719 C 32.824219 105.378906 32.628906 106.097656 32.238281 106.660156 C 31.847656 107.226563 31.265625 107.582031 30.484375 107.730469 C 30.871094 108.023438 31.191406 108.347656 31.441406 108.699219 C 31.691406 109.050781 32.03125 109.679688 32.460938 110.578125 L 33.542969 112.832031 L 31.398438 112.832031 L 30.113281 110.308594 C 29.652344 109.414063 29.332031 108.847656 29.164063 108.613281 C 28.992188 108.382813 28.8125 108.21875 28.621094 108.136719 C 28.429688 108.046875 28.128906 108.003906 27.714844 108.003906 L 27.351563 108.003906 L 27.351563 112.832031 Z M 27.351563 106.164063 L 28.679688 106.164063 C 29.539063 106.164063 30.074219 106.117188 30.289063 106.019531 C 30.503906 105.925781 30.671875 105.761719 30.792969 105.53125 C 30.914063 105.300781 30.972656 105.007813 30.972656 104.660156 C 30.972656 104.273438 30.894531 103.960938 30.734375 103.71875 C 30.574219 103.476563 30.347656 103.328125 30.058594 103.265625 C 29.914063 103.238281 29.476563 103.226563 28.75 103.226563 L 27.351563 103.226563 Z M 34.140625 107.121094 C 34.140625 105.945313 34.277344 104.953125 34.546875 104.152344 C 34.746094 103.5625 35.023438 103.03125 35.375 102.5625 C 35.722656 102.09375 36.105469 101.746094 36.523438 101.519531 C 37.078125 101.214844 37.714844 101.0625 38.441406 101.0625 C 39.75 101.0625 40.796875 101.589844 41.585938 102.648438 C 42.371094 103.710938 42.761719 105.183594 42.761719 107.070313 C 42.761719 108.9375 42.371094 110.402344 41.59375 111.457031 C 40.8125 112.515625 39.769531 113.042969 38.464844 113.042969 C 37.140625 113.042969 36.089844 112.519531 35.308594 111.464844 C 34.53125 110.417969 34.140625 108.96875 34.140625 107.121094 Z M 35.988281 107.042969 C 35.988281 108.355469 36.222656 109.347656 36.6875 110.027344 C 37.152344 110.703125 37.746094 111.042969 38.460938 111.042969 C 39.175781 111.042969 39.765625 110.703125 40.226563 110.035156 C 40.683594 109.363281 40.914063 108.355469 40.914063 107.011719 C 40.914063 105.683594 40.691406 104.695313 40.242188 104.042969 C 39.796875 103.390625 39.203125 103.0625 38.460938 103.0625 C 37.71875 103.0625 37.121094 103.394531 36.667969 104.054688 C 36.214844 104.714844 35.988281 105.710938 35.988281 107.042969 Z M 44.101563 110.621094 L 45.800781 110.621094 L 45.800781 112.207031 C 45.800781 112.847656 45.757813 113.355469 45.675781 113.726563 C 45.589844 114.097656 45.429688 114.429688 45.191406 114.722656 C 44.957031 115.019531 44.65625 115.25 44.292969 115.417969 L 43.964844 114.496094 C 44.304688 114.347656 44.546875 114.148438 44.691406 113.886719 C 44.835938 113.632813 44.910156 113.28125 44.917969 112.832031 L 44.101563 112.832031 Z M 50.585938 109.085938 L 52.335938 108.863281 C 52.441406 109.621094 52.652344 110.179688 52.972656 110.539063 C 53.292969 110.894531 53.726563 111.074219 54.269531 111.074219 C 54.84375 111.074219 55.277344 110.914063 55.570313 110.597656 C 55.859375 110.28125 56.007813 109.910156 56.007813 109.484375 C 56.007813 109.207031 55.945313 108.976563 55.824219 108.78125 C 55.703125 108.589844 55.488281 108.425781 55.179688 108.285156 C 54.972656 108.1875 54.496094 108.019531 53.75 107.78125 C 52.792969 107.46875 52.121094 107.085938 51.734375 106.628906 C 51.191406 105.992188 50.921875 105.214844 50.921875 104.296875 C 50.921875 103.707031 51.050781 103.152344 51.304688 102.640625 C 51.558594 102.125 51.925781 101.734375 52.410156 101.464844 C 52.890625 101.195313 53.46875 101.0625 54.152344 101.0625 C 55.261719 101.0625 56.101563 101.382813 56.660156 102.023438 C 57.222656 102.667969 57.515625 103.523438 57.546875 104.597656 L 55.746094 104.679688 C 55.671875 104.082031 55.507813 103.652344 55.257813 103.390625 C 55.007813 103.132813 54.628906 103 54.128906 103 C 53.613281 103 53.207031 103.136719 52.914063 103.417969 C 52.726563 103.597656 52.632813 103.839844 52.632813 104.140625 C 52.632813 104.414063 52.722656 104.648438 52.898438 104.84375 C 53.125 105.09375 53.671875 105.351563 54.542969 105.621094 C 55.414063 105.886719 56.058594 106.167969 56.472656 106.453125 C 56.890625 106.738281 57.21875 107.128906 57.453125 107.628906 C 57.691406 108.125 57.804688 108.738281 57.804688 109.46875 C 57.804688 110.132813 57.664063 110.753906 57.382813 111.332031 C 57.101563 111.910156 56.699219 112.339844 56.183594 112.621094 C 55.667969 112.902344 55.023438 113.042969 54.25 113.042969 C 53.128906 113.042969 52.265625 112.707031 51.664063 112.03125 C 51.0625 111.359375 50.703125 110.375 50.585938 109.085938 Z M 59.308594 112.832031 L 59.308594 101.269531 L 62.003906 101.269531 L 63.59375 109.15625 L 65.167969 101.269531 L 67.871094 101.269531 L 67.871094 112.832031 L 66.207031 112.832031 L 66.199219 103.730469 L 64.449219 112.832031 L 62.71875 112.832031 L 60.976563 103.730469 L 60.972656 112.832031 Z M 77.671875 112.832031 L 75.734375 112.832031 L 74.96875 110.203125 L 71.402344 110.203125 L 70.664063 112.832031 L 68.761719 112.832031 L 72.210938 101.269531 L 74.113281 101.269531 Z M 74.382813 108.246094 L 73.148438 103.96875 L 71.949219 108.246094 Z M 78.679688 112.832031 L 78.679688 101.367188 L 80.476563 101.367188 L 80.476563 110.878906 L 84.933594 110.878906 L 84.933594 112.832031 Z M 86.257813 112.832031 L 86.257813 101.367188 L 88.054688 101.367188 L 88.054688 110.878906 L 92.511719 110.878906 L 92.511719 112.832031 Z M 104.863281 111.429688 L 103.832031 113.140625 C 103.328125 112.820313 102.84375 112.378906 102.378906 111.816406 C 102.019531 112.234375 101.636719 112.546875 101.234375 112.746094 C 100.828125 112.945313 100.351563 113.042969 99.792969 113.042969 C 98.6875 113.042969 97.855469 112.636719 97.296875 111.828125 C 96.867188 111.203125 96.652344 110.480469 96.652344 109.667969 C 96.652344 108.921875 96.820313 108.253906 97.160156 107.664063 C 97.5 107.070313 98.011719 106.558594 98.683594 106.121094 C 98.382813 105.652344 98.152344 105.207031 98 104.78125 C 97.84375 104.355469 97.769531 103.953125 97.769531 103.574219 C 97.769531 102.875 97.984375 102.28125 98.414063 101.792969 C 98.839844 101.304688 99.457031 101.0625 100.25 101.0625 C 101.015625 101.0625 101.613281 101.316406 102.046875 101.824219 C 102.480469 102.335938 102.695313 102.957031 102.695313 103.695313 C 102.695313 104.164063 102.589844 104.609375 102.375 105.027344 C 102.164063 105.449219 101.734375 105.925781 101.089844 106.457031 L 102.3125 108.59375 C 102.457031 108.261719 102.578125 107.820313 102.683594 107.285156 L 104.226563 107.734375 C 104.074219 108.445313 103.941406 108.964844 103.828125 109.292969 C 103.714844 109.621094 103.59375 109.898438 103.464844 110.121094 C 103.652344 110.351563 103.898438 110.605469 104.203125 110.882813 C 104.503906 111.160156 104.722656 111.34375 104.863281 111.429688 Z M 100.230469 105.132813 L 100.6875 104.671875 C 101.023438 104.332031 101.191406 103.992188 101.191406 103.65625 C 101.191406 103.371094 101.113281 103.128906 100.949219 102.929688 C 100.785156 102.726563 100.566406 102.628906 100.289063 102.628906 C 100.019531 102.628906 99.808594 102.714844 99.65625 102.890625 C 99.507813 103.070313 99.429688 103.273438 99.429688 103.503906 C 99.429688 103.78125 99.558594 104.109375 99.816406 104.5 Z M 99.566406 107.546875 C 99.175781 107.804688 98.882813 108.117188 98.691406 108.480469 C 98.496094 108.84375 98.402344 109.214844 98.402344 109.589844 C 98.402344 110.070313 98.519531 110.460938 98.761719 110.765625 C 99 111.070313 99.320313 111.21875 99.722656 111.21875 C 99.984375 111.21875 100.242188 111.152344 100.484375 111.011719 C 100.734375 110.875 101 110.652344 101.289063 110.332031 Z M 109.394531 112.832031 L 109.394531 101.269531 L 112.089844 101.269531 L 113.679688 109.15625 L 115.253906 101.269531 L 117.953125 101.269531 L 117.953125 112.832031 L 116.292969 112.832031 L 116.285156 103.730469 L 114.535156 112.832031 L 112.804688 112.832031 L 111.0625 103.730469 L 111.054688 112.832031 Z M 119.753906 112.832031 L 119.753906 101.269531 L 126.328125 101.269531 L 126.328125 103.226563 L 121.554688 103.226563 L 121.554688 105.792969 L 125.996094 105.792969 L 125.996094 107.746094 L 121.554688 107.746094 L 121.554688 110.878906 L 126.503906 110.878906 L 126.503906 112.832031 Z M 128.03125 101.269531 L 131.300781 101.269531 C 132.039063 101.269531 132.601563 101.34375 132.988281 101.492188 C 133.507813 101.691406 133.953125 102.046875 134.324219 102.558594 C 134.699219 103.066406 134.976563 103.691406 135.171875 104.429688 C 135.363281 105.167969 135.460938 106.082031 135.460938 107.164063 C 135.460938 108.117188 135.371094 108.933594 135.1875 109.621094 C 134.96875 110.464844 134.652344 111.144531 134.238281 111.664063 C 133.929688 112.0625 133.507813 112.367188 132.984375 112.589844 C 132.585938 112.753906 132.058594 112.832031 131.398438 112.832031 L 128.03125 112.832031 Z M 129.828125 103.226563 L 129.828125 110.878906 L 131.160156 110.878906 C 131.660156 110.878906 132.019531 110.84375 132.242188 110.769531 C 132.535156 110.675781 132.773438 110.515625 132.964844 110.289063 C 133.15625 110.0625 133.3125 109.691406 133.429688 109.171875 C 133.554688 108.65625 133.613281 107.949219 133.613281 107.054688 C 133.613281 106.160156 133.554688 105.476563 133.429688 105 C 133.3125 104.519531 133.140625 104.148438 132.925781 103.878906 C 132.707031 103.613281 132.433594 103.429688 132.097656 103.335938 C 131.847656 103.261719 131.359375 103.226563 130.632813 103.226563 Z M 136.929688 112.832031 L 136.929688 101.269531 L 138.726563 101.269531 L 138.726563 112.832031 Z M 140.4375 101.269531 L 142.238281 101.269531 L 142.238281 107.535156 C 142.238281 108.53125 142.257813 109.175781 142.300781 109.46875 C 142.378906 109.945313 142.558594 110.324219 142.84375 110.609375 C 143.132813 110.898438 143.523438 111.042969 144.019531 111.042969 C 144.523438 111.042969 144.902344 110.90625 145.15625 110.636719 C 145.414063 110.363281 145.566406 110.03125 145.621094 109.636719 C 145.671875 109.238281 145.699219 108.585938 145.699219 107.671875 L 145.699219 101.269531 L 147.496094 101.269531 L 147.496094 107.351563 C 147.496094 108.738281 147.449219 109.722656 147.351563 110.296875 C 147.253906 110.867188 147.078125 111.355469 146.816406 111.75 C 146.558594 112.144531 146.210938 112.457031 145.777344 112.691406 C 145.339844 112.925781 144.773438 113.042969 144.074219 113.042969 C 143.226563 113.042969 142.585938 112.917969 142.148438 112.660156 C 141.714844 112.40625 141.367188 112.074219 141.113281 111.664063 C 140.859375 111.257813 140.695313 110.832031 140.613281 110.382813 C 140.496094 109.71875 140.4375 108.738281 140.4375 107.445313 Z M 149.371094 112.832031 L 149.371094 101.269531 L 152.066406 101.269531 L 153.660156 109.15625 L 155.234375 101.269531 L 157.933594 101.269531 L 157.933594 112.832031 L 156.273438 112.832031 L 156.265625 103.730469 L 154.515625 112.832031 L 152.785156 112.832031 L 151.042969 103.730469 L 151.035156 112.832031 Z M 163.179688 112.832031 L 163.179688 101.269531 L 169.757813 101.269531 L 169.757813 103.226563 L 164.980469 103.226563 L 164.980469 105.792969 L 169.421875 105.792969 L 169.421875 107.746094 L 164.980469 107.746094 L 164.980469 110.878906 L 169.929688 110.878906 L 169.929688 112.832031 Z M 171.457031 112.832031 L 171.457031 101.269531 L 173.195313 101.269531 L 176.855469 109.019531 L 176.855469 101.269531 L 178.515625 101.269531 L 178.515625 112.832031 L 176.71875 112.832031 L 173.117188 105.234375 L 173.117188 112.832031 Z M 182.414063 112.832031 L 182.414063 103.226563 L 179.785156 103.226563 L 179.785156 101.269531 L 186.832031 101.269531 L 186.832031 103.226563 L 184.214844 103.226563 L 184.214844 112.832031 Z M 187.996094 112.832031 L 187.996094 101.269531 L 194.570313 101.269531 L 194.570313 103.226563 L 189.796875 103.226563 L 189.796875 105.792969 L 194.238281 105.792969 L 194.238281 107.746094 L 189.796875 107.746094 L 189.796875 110.878906 L 194.746094 110.878906 L 194.746094 112.832031 Z M 196.273438 112.832031 L 196.273438 101.269531 L 200.050781 101.269531 C 201 101.269531 201.6875 101.375 202.121094 101.582031 C 202.550781 101.789063 202.894531 102.160156 203.152344 102.6875 C 203.410156 103.222656 203.542969 103.828125 203.542969 104.511719 C 203.542969 105.378906 203.347656 106.097656 202.957031 106.660156 C 202.566406 107.226563 201.984375 107.582031 201.207031 107.730469 C 201.59375 108.023438 201.910156 108.347656 202.160156 108.699219 C 202.414063 109.050781 202.753906 109.679688 203.179688 110.578125 L 204.261719 112.832031 L 202.117188 112.832031 L 200.832031 110.308594 C 200.371094 109.414063 200.054688 108.847656 199.882813 108.613281 C 199.714844 108.382813 199.53125 108.21875 199.34375 108.136719 C 199.148438 108.046875 198.847656 108.003906 198.433594 108.003906 L 198.070313 108.003906 L 198.070313 112.832031 Z M 198.070313 106.164063 L 199.398438 106.164063 C 200.257813 106.164063 200.792969 106.117188 201.007813 106.019531 C 201.222656 105.925781 201.390625 105.761719 201.511719 105.53125 C 201.632813 105.300781 201.695313 105.007813 201.695313 104.660156 C 201.695313 104.273438 201.613281 103.960938 201.453125 103.71875 C 201.296875 103.476563 201.070313 103.328125 200.777344 103.265625 C 200.632813 103.238281 200.195313 103.226563 199.472656 103.226563 L 198.070313 103.226563 Z M 205.230469 112.832031 L 205.230469 101.269531 L 208.109375 101.269531 C 209.199219 101.269531 209.90625 101.328125 210.238281 101.441406 C 210.746094 101.617188 211.171875 101.996094 211.515625 102.578125 C 211.859375 103.15625 212.03125 103.910156 212.03125 104.828125 C 212.03125 105.539063 211.933594 106.132813 211.734375 106.617188 C 211.535156 107.105469 211.285156 107.484375 210.984375 107.761719 C 210.679688 108.035156 210.367188 108.21875 210.054688 108.304688 C 209.628906 108.417969 209.007813 108.472656 208.195313 108.472656 L 207.03125 108.472656 L 207.03125 112.832031 Z M 207.03125 103.226563 L 207.03125 106.519531 L 208.011719 106.519531 C 208.714844 106.519531 209.183594 106.457031 209.421875 106.335938 C 209.660156 106.214844 209.847656 106.027344 209.980469 105.765625 C 210.113281 105.507813 210.183594 105.207031 210.183594 104.863281 C 210.183594 104.441406 210.085938 104.09375 209.898438 103.820313 C 209.707031 103.546875 209.472656 103.371094 209.179688 103.304688 C 208.96875 103.253906 208.539063 103.226563 207.894531 103.226563 Z M 213.507813 112.832031 L 213.507813 101.269531 L 217.285156 101.269531 C 218.234375 101.269531 218.925781 101.375 219.355469 101.582031 C 219.789063 101.789063 220.132813 102.160156 220.390625 102.6875 C 220.648438 103.222656 220.777344 103.828125 220.777344 104.511719 C 220.777344 105.378906 220.585938 106.097656 220.191406 106.660156 C 219.800781 107.226563 219.21875 107.582031 218.441406 107.730469 C 218.828125 108.023438 219.148438 108.347656 219.398438 108.699219 C 219.648438 109.050781 219.988281 109.679688 220.414063 110.578125 L 221.496094 112.832031 L 219.355469 112.832031 L 218.066406 110.308594 C 217.605469 109.414063 217.289063 108.847656 217.117188 108.613281 C 216.949219 108.382813 216.769531 108.21875 216.578125 108.136719 C 216.386719 108.046875 216.085938 108.003906 215.671875 108.003906 L 215.304688 108.003906 L 215.304688 112.832031 Z M 215.304688 106.164063 L 216.632813 106.164063 C 217.496094 106.164063 218.03125 106.117188 218.246094 106.019531 C 218.457031 105.925781 218.628906 105.761719 218.746094 105.53125 C 218.871094 105.300781 218.929688 105.007813 218.929688 104.660156 C 218.929688 104.273438 218.847656 103.960938 218.691406 103.71875 C 218.53125 103.476563 218.304688 103.328125 218.015625 103.265625 C 217.867188 103.238281 217.433594 103.226563 216.707031 103.226563 L 215.304688 103.226563 Z M 222.40625 112.832031 L 222.40625 101.269531 L 224.203125 101.269531 L 224.203125 112.832031 Z M 225.441406 109.085938 L 227.195313 108.863281 C 227.300781 109.621094 227.507813 110.179688 227.828125 110.539063 C 228.152344 110.894531 228.582031 111.074219 229.128906 111.074219 C 229.703125 111.074219 230.136719 110.914063 230.425781 110.597656 C 230.71875 110.28125 230.867188 109.910156 230.867188 109.484375 C 230.867188 109.207031 230.804688 108.976563 230.683594 108.78125 C 230.558594 108.589844 230.34375 108.425781 230.039063 108.285156 C 229.828125 108.1875 229.355469 108.019531 228.609375 107.78125 C 227.652344 107.46875 226.980469 107.085938 226.59375 106.628906 C 226.050781 105.992188 225.777344 105.214844 225.777344 104.296875 C 225.777344 103.707031 225.90625 103.152344 226.160156 102.640625 C 226.417969 102.125 226.785156 101.734375 227.269531 101.464844 C 227.75 101.195313 228.328125 101.0625 229.011719 101.0625 C 230.121094 101.0625 230.960938 101.382813 231.519531 102.023438 C 232.082031 102.667969 232.375 103.523438 232.402344 104.597656 L 230.605469 104.679688 C 230.527344 104.082031 230.367188 103.652344 230.113281 103.390625 C 229.863281 103.132813 229.488281 103 228.988281 103 C 228.472656 103 228.066406 103.136719 227.773438 103.417969 C 227.585938 103.597656 227.492188 103.839844 227.492188 104.140625 C 227.492188 104.414063 227.578125 104.648438 227.757813 104.84375 C 227.984375 105.09375 228.53125 105.351563 229.402344 105.621094 C 230.273438 105.886719 230.914063 106.167969 231.328125 106.453125 C 231.75 106.738281 232.074219 107.128906 232.3125 107.628906 C 232.546875 108.125 232.664063 108.738281 232.664063 109.46875 C 232.664063 110.132813 232.523438 110.753906 232.242188 111.332031 C 231.957031 111.910156 231.558594 112.339844 231.039063 112.621094 C 230.523438 112.902344 229.878906 113.042969 229.109375 113.042969 C 227.984375 113.042969 227.121094 112.707031 226.519531 112.03125 C 225.921875 111.359375 225.5625 110.375 225.441406 109.085938 Z M 234.191406 112.832031 L 234.191406 101.269531 L 240.769531 101.269531 L 240.769531 103.226563 L 235.992188 103.226563 L 235.992188 105.792969 L 240.433594 105.792969 L 240.433594 107.746094 L 235.992188 107.746094 L 235.992188 110.878906 L 240.941406 110.878906 L 240.941406 112.832031 Z M 241.996094 109.085938 L 243.746094 108.863281 C 243.851563 109.621094 244.0625 110.179688 244.382813 110.539063 C 244.703125 110.894531 245.136719 111.074219 245.679688 111.074219 C 246.253906 111.074219 246.6875 110.914063 246.980469 110.597656 C 247.269531 110.28125 247.417969 109.910156 247.417969 109.484375 C 247.417969 109.207031 247.355469 108.976563 247.234375 108.78125 C 247.113281 108.589844 246.898438 108.425781 246.589844 108.285156 C 246.382813 108.1875 245.90625 108.019531 245.160156 107.78125 C 244.203125 107.46875 243.53125 107.085938 243.144531 106.628906 C 242.601563 105.992188 242.328125 105.214844 242.328125 104.296875 C 242.328125 103.707031 242.460938 103.152344 242.714844 102.640625 C 242.96875 102.125 243.339844 101.734375 243.820313 101.464844 C 244.300781 101.195313 244.878906 101.0625 245.5625 101.0625 C 246.671875 101.0625 247.511719 101.382813 248.070313 102.023438 C 248.632813 102.667969 248.925781 103.523438 248.957031 104.597656 L 247.15625 104.679688 C 247.082031 104.082031 246.917969 103.652344 246.667969 103.390625 C 246.414063 103.132813 246.039063 103 245.539063 103 C 245.023438 103 244.617188 103.136719 244.324219 103.417969 C 244.136719 103.597656 244.042969 103.839844 244.042969 104.140625 C 244.042969 104.414063 244.132813 104.648438 244.308594 104.84375 C 244.535156 105.09375 245.082031 105.351563 245.953125 105.621094 C 246.824219 105.886719 247.46875 106.167969 247.882813 106.453125 C 248.300781 106.738281 248.628906 107.128906 248.863281 107.628906 C 249.097656 108.125 249.214844 108.738281 249.214844 109.46875 C 249.214844 110.132813 249.074219 110.753906 248.792969 111.332031 C 248.507813 111.910156 248.109375 112.339844 247.59375 112.621094 C 247.078125 112.902344 246.429688 113.042969 245.660156 113.042969 C 244.535156 113.042969 243.675781 112.707031 243.074219 112.03125 C 242.472656 111.359375 242.113281 110.375 241.996094 109.085938 "/>
</g>
</svg>
